<?xml version="1.0" encoding="UTF-8"?>
<svg id="Camada_1" data-name="Camada 1" xmlns="http://www.w3.org/2000/svg" viewBox="0 0 1920 343.31">
  <defs>
    <style>
      .cls-1 {
        fill: #fff;
      }
    </style>
  </defs>
  <path class="cls-1" d="m455.17,137.81l3.11-8.08c11.81,6.01,26.94,11.4,46,11.4,29.01,0,42.69-15.54,42.69-31.5,0-9.74-4.35-16.78-12.64-21.14-6.22-3.32-17.41-5.39-30.46-6.84-13.68-1.45-25.07-3.32-33.15-7.46-12.64-6.42-17.2-15.54-17.2-27.77,0-20.51,19.89-36.47,49.94-36.47,18.03,0,32.74,3.94,44.55,9.95l-2.9,7.87c-10.77-5.18-25.07-9.32-41.65-9.32-26.32,0-40.61,12.64-40.61,27.97,0,9.12,3.32,15.75,12.64,20.51,6.63,3.32,17.41,4.77,30.05,6.22,13.68,1.66,26.11,3.94,32.95,7.67,11.6,6.22,17.82,15.54,17.82,28.8,0,20.51-17.82,39.99-52.01,39.99-20.72,0-35.85-4.77-49.11-11.81Z"/>
  <path class="cls-1" d="m679.16,10.86v136.34h-9.32V10.86h9.32Z"/>
  <path class="cls-1" d="m844.3,19.35h-58.85v-8.5h127.02v8.5h-58.85v127.85h-9.32V19.35Z"/>
  <path class="cls-1" d="m1217.67,137.81l3.11-8.08c11.81,6.01,26.94,11.4,46,11.4,29.01,0,42.69-15.54,42.69-31.5,0-9.74-4.35-16.78-12.64-21.14-6.22-3.32-17.4-5.39-30.46-6.84-13.68-1.45-25.07-3.32-33.15-7.46-12.64-6.42-17.2-15.54-17.2-27.77,0-20.51,19.89-36.47,49.94-36.47,18.03,0,32.74,3.94,44.55,9.95l-2.9,7.87c-10.78-5.18-25.07-9.32-41.65-9.32-26.32,0-40.61,12.64-40.61,27.97,0,9.12,3.32,15.75,12.64,20.51,6.63,3.32,17.4,4.77,30.05,6.22,13.68,1.66,26.11,3.94,32.95,7.67,11.6,6.22,17.82,15.54,17.82,28.8,0,20.51-17.82,39.99-52.01,39.99-20.72,0-35.85-4.77-49.11-11.81Z"/>
  <path class="cls-1" d="m482.53,277.24v33.15h76.87v25.28h-105.88v-136.34h102.15v25.49h-73.14v30.04h64.44v22.38h-64.44Z"/>
  <path class="cls-1" d="m640,265.64l-47.66-66.31h34.4l33.98,46.83h.62s5.39-9.74,8.08-13.47l24.04-33.36h33.78l-47.87,66.72,49.94,69.62h-34.81l-35.85-49.32h-.41s-7.67,12.64-9.32,15.13l-24.45,34.19h-34.19l49.73-70.04Z"/>
  <path class="cls-1" d="m952.25,277.24v33.15h76.87v25.28h-105.88v-136.34h102.15v25.49h-73.14v30.04h64.44v22.38h-64.44Z"/>
  <path class="cls-1" d="m1072.01,199.33h52.01c37.71,0,54.5,18.65,54.5,44.14,0,15.33-6.42,29.84-21.96,37.3v.62l33.57,54.29h-32.53l-31.08-49.32h-25.49v49.32h-29.01v-136.34Zm49.94,65.06c19.48,0,27.77-6.01,27.77-20.31,0-11.6-5.8-19.89-26.11-19.89h-22.59v40.2h20.93Z"/>
  <path class="cls-1" d="m1257.87,199.33v136.34h-29.01v-136.34h29.01Z"/>
  <path class="cls-1" d="m1340.33,277.24v33.15h76.88v25.28h-105.88v-136.34h102.15v25.49h-73.15v30.04h64.44v22.38h-64.44Z"/>
  <path class="cls-1" d="m1560.38,199.33h29.01v136.34h-27.14l-73.28-89.57.14,89.57h-29.01v-136.34h27.56l72.63,88.86.1-88.86Z"/>
  <path class="cls-1" d="m1633.31,268.75c0-39.58,29.84-71.9,74.6-71.9,28.39,0,42.69,10.15,52.42,17.82l-11.4,23c-10.98-9.32-23.83-15.13-39.78-15.13-28.39,0-45.38,20.51-45.38,46s16.99,43.93,46.62,43.93c20.72,0,34.19-10.57,43.1-18.44l11.4,21.14c-7.46,8.29-26.31,23-56.57,23-51.18,0-75.01-32.12-75.01-69.42Z"/>
  <path class="cls-1" d="m1835.95,277.24v33.15h76.88v25.28h-105.88v-136.34h102.15v25.49h-73.15v30.04h64.44v22.38h-64.44Z"/>
  <g>
    <polygon class="cls-1" points="10.03 136 53.28 253.26 90.28 216.25 127.29 179.25 10.03 136"/>
    <path class="cls-1" d="m339.97,133.3L7.34,10.61l26.31,71.34,193.63,71.42-71.78,71.78-50.43,50.43,24.96,67.67,79.75-79.75,36.79,36.79c14.14,14.14,37.06,14.14,51.19,0h0c13.72-13.72,13.72-35.97,0-49.69l-37.54-37.54,79.75-79.75Z"/>
  </g>
  <g>
    <polygon class="cls-1" points="1028.08 80.48 1044.05 80.48 1104.54 80.48 1104.54 72.4 1028.08 72.4 1028.08 19.35 1112.83 19.35 1112.83 10.86 1018.76 10.86 1018.76 80.48 1028.08 80.48"/>
    <polygon class="cls-1" points="1044.05 138.71 1028.08 138.71 1018.76 138.71 1018.76 147.2 1116.98 147.2 1116.98 138.71 1044.05 138.71"/>
  </g>
  <path class="cls-1" d="m820.47,199.33h-49.73v25.28h49.32c26.32,0,30.46,11.81,30.46,22.59,0,15.54-8.29,23.83-28.59,23.83h-51.18v64.65h29.01v-41.65h24.66c36.26,0,54.91-17.2,54.91-47.45,0-27.35-18.23-47.24-58.85-47.24Z"/>
  <path class="cls-1" d="m1488.27,78.96c.43,1.19,1.25,6.52,1.25,6.52h.43s.76-5.27,1.19-6.63l4.18-12.92h7.33l-8.58,26.83h-7.22l-4.02-11.89c-.27-.92-1.36-5.59-1.36-5.59h-.22s-1.09,4.67-1.36,5.59l-4.02,11.89h-7.06l-8.74-26.83h7.33l4.18,12.92c.43,1.36,1.14,6.63,1.14,6.63h.49s.87-5.32,1.25-6.52l4.07-12.16h5.65l4.07,12.16Z"/>
  <path class="cls-1" d="m1640.41,78.96c.43,1.19,1.25,6.52,1.25,6.52h.43s.76-5.27,1.19-6.63l4.18-12.92h7.33l-8.58,26.83h-7.22l-4.02-11.89c-.27-.92-1.36-5.59-1.36-5.59h-.22s-1.09,4.67-1.36,5.59l-4.02,11.89h-7.06l-8.74-26.83h7.33l4.18,12.92c.43,1.36,1.14,6.63,1.14,6.63h.49s.87-5.32,1.25-6.52l4.07-12.16h5.65l4.07,12.16Z"/>
  <path class="cls-1" d="m1792.55,78.96c.43,1.19,1.25,6.52,1.25,6.52h.43s.76-5.27,1.19-6.63l4.18-12.92h7.33l-8.58,26.83h-7.22l-4.02-11.89c-.27-.92-1.36-5.59-1.36-5.59h-.22s-1.09,4.67-1.36,5.59l-4.02,11.89h-7.06l-8.74-26.83h7.33l4.18,12.92c.43,1.36,1.14,6.63,1.14,6.63h.49s.87-5.32,1.25-6.52l4.07-12.16h5.65l4.07,12.16Z"/>
</svg>