<?xml version="1.0" encoding="utf-8"?>
<!-- Generator: Adobe Illustrator 25.4.1, SVG Export Plug-In . SVG Version: 6.00 Build 0)  -->
<svg version="1.1" id="Layer_1" xmlns="http://www.w3.org/2000/svg" xmlns:xlink="http://www.w3.org/1999/xlink" x="0px" y="0px"
	 viewBox="0 0 500 138.2" style="enable-background:new 0 0 500 138.2;" xml:space="preserve">
<style type="text/css">
	.st0{fill:#FF5757;}
	.st1{fill:#FFC5EB;}
	.st2{fill:#FFFFFF;}
</style>
<g id="Group_69" transform="translate(0 116.041)">
	<path id="Path_309" class="st0" d="M104.4,9v12.9H101V1.3h5.1l4.3,12.4c0.2,0.6,0.4,1.3,0.5,1.9c0.2,0.6,0.3,1.2,0.5,1.8
		c0.1-0.3,0.2-0.7,0.3-1.1l0.3-1.2c0.1-0.4,0.2-0.7,0.3-1l4.3-12.8h5v20.6h-3.4V9V7.1c0-0.8,0.1-1.7,0.1-2.6c-0.3,1.2-0.6,2.2-0.8,3
		c-0.2,0.8-0.5,1.5-0.6,2l-4.3,12.3H110l-4.3-12.2l-1.5-5c0,1,0.1,1.9,0.1,2.6S104.4,8.5,104.4,9z"/>
	<path id="Path_310" class="st0" d="M145,16.4l-2,5.5h-3.8L147,1.3h4.4l7.8,20.6h-3.8l-2-5.5H145z M149.2,4.1
		c-0.1,0.4-0.3,1-0.5,1.5c-0.2,0.6-0.4,1-0.5,1.4l-2.3,6.5h6.5L150,6.9c0-0.4-0.2-0.8-0.4-1.3C149.5,5.1,149.3,4.6,149.2,4.1z"/>
	<path id="Path_311" class="st0" d="M186.4,19.2c1.2,0,2.3-0.2,3.4-0.5c0.9-0.3,1.8-0.7,2.6-1.4v-3.1H187v-2.9h8.9v7.3
		c-1.2,1.2-2.6,2.1-4.2,2.6c-1.7,0.6-3.6,0.9-5.4,0.9c-2,0.1-3.9-0.4-5.6-1.3c-1.5-0.8-2.8-2.1-3.6-3.7c-0.9-1.8-1.3-3.8-1.2-5.8
		c0-3.4,0.9-6,2.7-7.8c1.8-1.8,4.4-2.7,7.7-2.7c2-0.1,4,0.4,5.8,1.3c1.5,0.9,2.7,2.3,3.3,3.9l-3.5,1.1c-0.4-1-1.2-1.9-2.1-2.4
		c-1.1-0.6-2.2-0.8-3.4-0.8c-1.9,0-3.7,0.7-5,2.1c-1.2,1.6-1.8,3.6-1.7,5.5c-0.1,2,0.5,4,1.8,5.6C182.7,18.5,184.5,19.3,186.4,19.2
		L186.4,19.2z"/>
	<path id="Path_312" class="st0" d="M218.3,9.2v12.7h-3.4V1.3h4.4l9.8,16.6c-0.2-1.6-0.2-3-0.2-4.1V1.3h3.4v20.6h-4.5l-9.7-16.4
		c0.1,0.7,0.1,1.4,0.2,2C218.3,7.5,218.3,9.2,218.3,9.2z"/>
	<path id="Path_313" class="st0" d="M268,18.9v3h-16.6V1.3h16v3h-12.2V10h11.3v3h-11.3v6L268,18.9L268,18.9z M264-3.9l-4.8,3.4H257
		v-0.4l3.5-3.6h3.5V-3.9z"/>
	<path id="Path_314" class="st0" d="M295.1,4.3v17.6h-3.8V4.3h-6.8v-3h17.4v3H295.1L295.1,4.3z"/>
	<path id="Path_315" class="st0" d="M323.4,1.3v20.6h-3.8V1.3H323.4z"/>
	<path id="Path_316" class="st0" d="M352.2,19.2c2.7,0,4.6-1.3,5.8-4l3.3,1.3c-0.7,1.8-2,3.3-3.6,4.3c-1.7,1-3.6,1.5-5.5,1.4
		c-1.9,0.1-3.8-0.4-5.5-1.3c-1.5-0.8-2.7-2.1-3.5-3.7c-1.6-3.6-1.6-7.8,0-11.4c0.7-1.5,2-2.8,3.5-3.6c1.7-0.9,3.6-1.3,5.5-1.2
		c2-0.1,4,0.4,5.8,1.4c1.5,1,2.7,2.4,3.2,4.1l-3.4,1c-0.4-1.1-1.1-2-2-2.6c-1-0.6-2.3-1-3.5-0.9c-1.8-0.1-3.5,0.6-4.7,1.9
		c-1.2,1.6-1.8,3.6-1.6,5.5c0,1.4,0.2,2.8,0.8,4.1c0.5,1.1,1.2,2,2.2,2.6C349.8,18.9,351,19.2,352.2,19.2L352.2,19.2z"/>
	<path id="Path_317" class="st0" d="M399,11.5c0,2-0.4,3.9-1.3,5.6c-0.8,1.6-2.1,2.9-3.6,3.7c-1.7,0.9-3.6,1.4-5.5,1.3
		c-1.9,0.1-3.8-0.4-5.5-1.3c-1.5-0.8-2.8-2.1-3.6-3.7c-0.9-1.8-1.3-3.7-1.2-5.7c-0.1-2,0.4-3.9,1.2-5.7c0.8-1.5,2-2.8,3.6-3.6
		c1.7-0.9,3.6-1.3,5.6-1.3c1.9-0.1,3.8,0.4,5.5,1.3c1.5,0.8,2.8,2.1,3.6,3.6C398.7,7.6,399.1,9.5,399,11.5L399,11.5z M395.1,11.5
		c0.1-2-0.5-3.9-1.7-5.5c-1.2-1.4-3-2.1-4.8-2c-1.8-0.1-3.6,0.6-4.8,2c-1.2,1.6-1.8,3.5-1.7,5.5c0,1.4,0.2,2.8,0.8,4.1
		c0.5,1.1,1.2,2,2.2,2.7c1,0.6,2.2,1,3.5,0.9c1.8,0.1,3.6-0.6,4.8-2C394.7,15.5,395.3,13.5,395.1,11.5z"/>
</g>
<g>
	<g id="Group_66" transform="translate(112.05)">
		<path id="Path_302" class="st1" d="M98.9,96.4H75.3l-7.1-19.3L39.7,0h20.4L98.9,96.4z"/>
		<path id="Path_303" class="st0" d="M57.4,57.8H35.7l10.8-30.6L36.4,0L-2.5,96.4h23.6l7.1-19.3h36.6C64.9,77.1,57.4,57.8,57.4,57.8
			z"/>
	</g>
	<g id="Group_67" transform="translate(225.344)">
		<path id="Path_304" class="st1" d="M70.6,96.4H47.1L40,77.1L11.4,0h20.4L70.6,96.4z"/>
		<path id="Path_305" class="st0" d="M8.1,0H-5.7v96.4h22V22.1L8.1,0z"/>
		<path id="Path_306" class="st0" d="M61.4,0v65.3l12.6,31h9.4V0H61.4z"/>
	</g>
	<g id="Group_68" transform="translate(324.766)">
		<path id="Path_307" class="st1" d="M50.6,96.4H27.1L20,77.1L-8.5,0h20.4L50.6,96.4z"/>
		<path id="Path_308" class="st0" d="M70.1,0L42.9,67.3l11.7,29h0.2l7.1-19.3L90.4,0H70.1z"/>
	</g>
	<g id="Group_70">
		<path id="Path_318" class="st1" d="M76.5,71.9H48.9c-13.2,0-23.7-10.7-23.7-23.7c0-13.2,10.7-23.7,23.7-23.7h29V0h-29
			C22.3,0,0.7,21.6,0.7,48.2s21.6,48.2,48.2,48.2H78V71.9H76.5z"/>
		<path id="Path_319" class="st0" d="M4.6,66.9C12,84.8,29.5,96.4,48.9,96.4h29V71.9h-29c-13.1,0-23.7-10.7-23.7-23.7H0.8
			C0.7,54.6,2,61,4.6,66.9z"/>
		<path id="Rectangle_20" class="st2" d="M76.5,71.9h24.4v24.4H76.5V71.9z"/>
		<path id="Rectangle_21" class="st2" d="M76.5,0h24.4v24.4H76.5V0z"/>
	</g>
	<g id="Group_71" transform="translate(408.793)">
		<path id="Path_320" class="st1" d="M90.5,96.4H67l-7.1-19.3L31.4,0h20.4L90.5,96.4z"/>
		<path id="Path_321" class="st0" d="M48.9,57.8H27.3l10.8-30.6L28,0l-38.9,96.4h23.5l7.1-19.3h36.7L48.9,57.8z"/>
	</g>
</g>
</svg>
