<?xml version="1.0" encoding="utf-8"?>
<!-- Generator: Adobe Illustrator 25.4.1, SVG Export Plug-In . SVG Version: 6.00 Build 0)  -->
<svg version="1.1" id="Layer_1" xmlns="http://www.w3.org/2000/svg" xmlns:xlink="http://www.w3.org/1999/xlink" x="0px" y="0px"
	 viewBox="0 0 500 138.2" style="enable-background:new 0 0 500 138.2;" xml:space="preserve">
<style type="text/css">
	.st0{fill:#FFC5EB;}
	.st1{fill:#FF5757;}
	.st2{fill:#FFFFFF;}
</style>
<g id="Group_66" transform="translate(112.05)">
	<path id="Path_302" class="st0" d="M98.9,96.6H75.3l-7.1-19.3L39.6,0H60L98.9,96.6z"/>
	<path id="Path_303" class="st1" d="M57.3,57.9H35.6l10.8-30.7L36.3,0l-39,96.6H21l7.1-19.3h36.7C64.8,77.3,57.3,57.9,57.3,57.9z"/>
</g>
<g id="Group_67" transform="translate(225.344)">
	<path id="Path_304" class="st0" d="M70.8,96.6H47.2l-7.1-19.3L11.5,0h20.4L70.8,96.6z"/>
	<path id="Path_305" class="st1" d="M8.2,0H-5.7v96.6h22V22.1L8.2,0z"/>
	<path id="Path_306" class="st1" d="M61.6,0v65.4l12.6,31.1h9.4V0H61.6z"/>
</g>
<g id="Group_68" transform="translate(324.766)">
	<path id="Path_307" class="st0" d="M51,96.6H27.4l-7.1-19.3L-8.3,0h20.4L51,96.6z"/>
	<path id="Path_308" class="st1" d="M70.5,0L43.3,67.5L55,96.6h0.2l7.1-19.3L90.9,0H70.5z"/>
</g>
<g id="Group_69" transform="translate(0 116.041)">
	<path id="Path_309" class="st1" d="M3.7,9.3v12.9H0.3V1.6h5.1L9.7,14c0.2,0.6,0.4,1.3,0.5,1.9c0.2,0.6,0.3,1.2,0.5,1.8
		c0.1-0.3,0.2-0.7,0.3-1.1l0.3-1.2c0.1-0.4,0.2-0.7,0.3-1l4.3-12.8h5v20.6h-3.4V9.3V7.4c0-0.8,0.1-1.7,0.1-2.6C17.3,6,17,7,16.8,7.8
		c-0.2,0.8-0.5,1.5-0.6,2l-4.3,12.3H9.3L5,9.9l-1.5-5c0,1,0.1,1.9,0.1,2.6S3.7,8.8,3.7,9.3z"/>
	<path id="Path_310" class="st1" d="M44.4,16.7l-2,5.5h-3.8l7.8-20.6h4.4l7.8,20.6h-3.8l-2-5.5H44.4z M48.6,4.4
		c-0.1,0.4-0.3,1-0.5,1.5c-0.2,0.6-0.4,1-0.5,1.4l-2.3,6.5h6.5l-2.4-6.6c0-0.4-0.2-0.8-0.4-1.3C48.9,5.4,48.7,4.9,48.6,4.4z"/>
	<path id="Path_311" class="st1" d="M85.9,19.5c1.2,0,2.3-0.2,3.4-0.5c0.9-0.3,1.8-0.7,2.6-1.4v-3.1h-5.4v-2.9h8.9v7.3
		c-1.2,1.2-2.6,2.1-4.2,2.6c-1.7,0.6-3.6,0.9-5.4,0.9c-2,0.1-3.9-0.4-5.6-1.3c-1.5-0.8-2.8-2.1-3.6-3.7c-0.9-1.8-1.3-3.8-1.2-5.8
		c0-3.4,0.9-6,2.7-7.8c1.8-1.8,4.4-2.7,7.7-2.7c2-0.1,4,0.4,5.8,1.3c1.5,0.9,2.7,2.3,3.3,3.9l-3.5,1.1c-0.4-1-1.2-1.9-2.1-2.4
		c-1.1-0.6-2.2-0.8-3.4-0.8c-1.9,0-3.7,0.7-5,2.1c-1.2,1.6-1.8,3.6-1.7,5.5c-0.1,2,0.5,4,1.8,5.6C82.2,18.8,84,19.6,85.9,19.5
		L85.9,19.5z"/>
	<path id="Path_312" class="st1" d="M117.9,9.5v12.7h-3.4V1.6h4.4l9.8,16.6c-0.2-1.6-0.2-3-0.2-4.1V1.6h3.4v20.6h-4.5l-9.7-16.4
		c0.1,0.7,0.1,1.4,0.2,2C117.9,7.8,117.9,9.5,117.9,9.5z"/>
	<path id="Path_313" class="st1" d="M167.7,19.2v3h-16.6V1.6h16v3h-12.2v5.7h11.3v3h-11.3v6h12.8V19.2z M163.7-3.6l-4.8,3.4h-2.2
		v-0.4l3.5-3.6h3.5V-3.6z"/>
	<path id="Path_314" class="st1" d="M194.9,4.6v17.6h-3.8V4.6h-6.8v-3h17.4v3H194.9L194.9,4.6z"/>
	<path id="Path_315" class="st1" d="M223.2,1.6v20.6h-3.8V1.6H223.2z"/>
	<path id="Path_316" class="st1" d="M252.1,19.5c2.7,0,4.6-1.3,5.8-4l3.3,1.3c-0.7,1.8-2,3.3-3.6,4.3c-1.7,1-3.6,1.5-5.5,1.4
		c-1.9,0.1-3.8-0.4-5.5-1.3c-1.5-0.8-2.7-2.1-3.5-3.7c-1.6-3.6-1.6-7.8,0-11.4c0.7-1.5,2-2.8,3.5-3.6c1.7-0.9,3.6-1.3,5.5-1.2
		c2-0.1,4,0.4,5.8,1.4c1.5,1,2.7,2.4,3.2,4.1l-3.4,1c-0.4-1.1-1.1-2-2-2.6c-1-0.6-2.3-1-3.5-0.9c-1.8-0.1-3.5,0.6-4.7,1.9
		c-1.2,1.6-1.8,3.6-1.6,5.5c0,1.4,0.2,2.8,0.8,4.1c0.5,1.1,1.2,2,2.2,2.6C249.7,19.2,250.9,19.5,252.1,19.5L252.1,19.5z"/>
	<path id="Path_317" class="st1" d="M299,11.8c0,2-0.4,3.9-1.3,5.6c-0.8,1.6-2.1,2.9-3.6,3.7c-1.7,0.9-3.6,1.4-5.5,1.3
		c-1.9,0.1-3.8-0.4-5.5-1.3c-1.5-0.8-2.8-2.1-3.6-3.7c-0.9-1.8-1.3-3.7-1.2-5.7c-0.1-2,0.4-3.9,1.2-5.7c0.8-1.5,2-2.8,3.6-3.6
		c1.7-0.9,3.6-1.3,5.6-1.3c1.9-0.1,3.8,0.4,5.5,1.3c1.5,0.8,2.8,2.1,3.6,3.6C298.7,7.9,299.1,9.8,299,11.8L299,11.8z M295.1,11.8
		c0.1-2-0.5-3.9-1.7-5.5c-1.2-1.4-3-2.1-4.8-2c-1.8-0.1-3.6,0.6-4.8,2c-1.2,1.6-1.8,3.5-1.7,5.5c0,1.4,0.2,2.8,0.8,4.1
		c0.5,1.1,1.2,2,2.2,2.7c1,0.6,2.2,1,3.5,0.9c1.8,0.1,3.6-0.6,4.8-2C294.7,15.8,295.3,13.8,295.1,11.8z"/>
</g>
<g id="Group_70">
	<path id="Path_318" class="st0" d="M76.2,72.1H48.5c-13.2,0-23.8-10.7-23.8-23.8c0-13.2,10.7-23.8,23.8-23.8h29.1V0H48.5
		C21.9,0,0.2,21.6,0.2,48.3s21.6,48.3,48.3,48.3h29.2V72.1H76.2z"/>
	<path id="Path_319" class="st1" d="M4.1,67.1c7.5,17.9,25,29.5,44.4,29.5h29.1V72.1H48.5c-13.1,0-23.8-10.7-23.8-23.8H0.3
		C0.2,54.7,1.5,61.1,4.1,67.1z"/>
	<path id="Rectangle_20" class="st2" d="M76.2,72.1h24.5v24.5H76.2V72.1z"/>
	<path id="Rectangle_21" class="st2" d="M76.2,0h24.5v24.5H76.2V0z"/>
</g>
<g id="Group_71" transform="translate(408.793)">
	<path id="Path_320" class="st0" d="M91.2,96.6H67.6l-7.1-19.3L31.9,0h20.4L91.2,96.6z"/>
	<path id="Path_321" class="st1" d="M49.5,57.9H27.8l10.8-30.7L28.5,0l-39,96.6h23.6l7.1-19.3H57L49.5,57.9z"/>
</g>
</svg>
