<svg version="1.1" id="Layer_1" xmlns="http://www.w3.org/2000/svg" x="0" y="0" viewBox="0 0 500 40" xml:space="preserve"><style>.st0{fill:#5acb69}</style><g id="Grupo_4723" transform="translate(-713.003 -1255.996)"><g id="Grupo_454" transform="translate(713.003 1262.037)"><path id="Caminho_182" class="st0" d="M24.4 24.1l3.4-20h5.5l-3.4 20h-5.5zM49.6 4.5c-1.6-.6-3.2-.8-4.9-.8-5.4 0-9.2 2.7-9.2 6.6 0 2.9 2.7 4.5 4.8 5.4 2.1 1 2.8 1.6 2.8 2.5 0 1.3-1.7 2-3.3 2-1.8.1-3.5-.3-5.1-1.1l-.7-.3-.8 4.5c1.9.7 4 1.1 6.1 1.1 5.7 0 9.5-2.7 9.5-6.8 0-2.3-1.4-4-4.6-5.4-1.9-.9-3.1-1.5-3.1-2.5 0-.8 1-1.7 3.1-1.7 1.4 0 2.8.2 4.1.8l.5.2.8-4.5m14-.4h-4.2c-1.2-.2-2.4.5-2.9 1.7l-8.1 18.4h5.7s.9-2.5 1.1-3h7c.2.7.7 3 .7 3H68L63.6 4.1zM56.9 17c.5-1.2 2.2-5.6 2.2-5.6 0 .1.4-1.2.7-1.9l.4 1.7 1.3 5.8h-4.6zM19.8 4.1l-5.3 13.7-.6-2.8c-1.4-3.6-4.1-6.6-7.6-8.4l4.9 17.5H17l8.6-20h-5.8"/><path id="Caminho_183" class="st0" d="M9.4 2.7H.6v.4C7.4 4.8 12 8.8 13.8 13.6l-1.9-9.2c-.3-1.1-1.3-1.8-2.5-1.7"/></g><g id="Grupo_455" transform="translate(800.397 1255.996)"><path id="Caminho_184" class="st0" d="M21.1 23.2c0-.6.1-1.3.3-1.9.1-.7.8-4.9.8-4.9h1.2c.8-3.6 2.6-6.9 5.2-9.5-3.1-2.6-7.1-4.1-11.1-4.1C8 2.8.2 10.5.2 20s7.7 17.3 17.3 17.3c4.1 0 8-1.4 11.1-4.1-2.4-2.3-4.2-5.3-5-8.6-.3.1-.7.1-1 .1-.4 0-.8-.1-1.1-.4-.3-.2-.4-.7-.4-1.1zM7.5 24.7l1.1-6.9-2.4 6.9H4.9l-.2-6.8-1.1 6.8H1.8l1.5-8.9H6l.1 5.5L8 15.8h3l-1.5 8.9h-2zm6.5 0v-.8c-.5.6-1.2.9-2 .9-.5 0-1-.2-1.3-.6-.3-.4-.5-.9-.4-1.4 0-1.8 1.2-2.8 3.4-2.8.3 0 .5 0 .8.1 0-.2.1-.3.1-.5 0-.5-.3-.7-1.2-.7-.7 0-1.4.1-2 .3 0-.1.3-1.6.3-1.6.7-.2 1.5-.4 2.3-.4 1.6 0 2.5.7 2.5 2.1 0 .5-.1 1-.2 1.4-.2 1-.5 3.3-.6 3.9l-1.7.1zm5.5-4.4c.9.3 1.4 1.1 1.3 2 0 1.7-.9 2.4-2.9 2.4-.7 0-1.3-.1-2-.2 0-.1.3-1.7.3-1.7.6.2 1.1.3 1.7.3.8 0 1.1-.2 1.1-.7 0-.3-.1-.4-.9-.8-.9-.3-1.5-1.1-1.5-2 0-1.3.7-2.5 2.9-2.5.6 0 1.1.1 1.7.1l-.2 1.9c-.5-.1-1-.1-1.4-.1-.6 0-.9.2-.9.6 0 .3 0 .4.8.7z"/><path id="Caminho_185" class="st0" d="M12.1 22.5c0 .2 0 .4.2.5.1.1.3.2.5.2.8 0 1.3-.7 1.4-1.8h-.4c-1.2 0-1.7.4-1.7 1.1z"/><path id="Caminho_186" class="st0" d="M43.8 21.4c-1.1 0-1.6.4-1.6 1.1 0 .2 0 .4.2.5.1.1.3.2.5.2.8 0 1.3-.7 1.4-1.8h-.5z"/><path id="Caminho_187" class="st0" d="M41.5 2.7c-4.1 0-8 1.4-11.1 4.1 2.9 2.8 4.8 6.5 5.4 10.5.7-1.1 2-1.8 3.3-1.8.7 0 1.4.2 2.1.5l-.3 1.9c-.5-.3-1.1-.5-1.7-.5-1.4 0-2.4 1.4-2.4 3.3 0 1.4.7 2.2 1.8 2.2.6 0 1.1-.2 1.6-.5l-.3 2c-.5.2-1.1.3-1.7.3-1 0-1.9-.4-2.5-1.1-.7 3.6-2.6 7-5.2 9.6 3.1 2.6 7.1 4.1 11.1 4.1 9.5 0 17.3-7.7 17.3-17.3-.1-9.5-7.9-17.3-17.4-17.3zm4.1 22H44v-.8c-.5.6-1.2.9-2 .9-.5 0-1-.2-1.3-.6-.3-.4-.5-.9-.4-1.4 0-1.8 1.2-2.8 3.4-2.8.3 0 .5 0 .8.1 0-.2.1-.3.1-.5 0-.5-.3-.7-1.2-.7-.7 0-1.4.1-2 .3l.3-1.6c.7-.2 1.5-.4 2.3-.4 1.6 0 2.5.7 2.5 2.1 0 .5-.1 1-.2 1.4-.3 1.2-.6 3.4-.7 4zm2.6 0h-1.9l.1-.5c.3-2.2.8-4.5 1-6.8h1.8c0 .4 0 .7-.1 1.1.6-.9 1-1.3 1.8-1.1-.3.7-.6 1.4-.7 2.1-1.2-.1-1.4.7-2 5.2zm5.7 0l.1-.7c-.4.5-1.1.8-1.8.8-1.4 0-2.3-1.2-2.3-3 0-2.4 1.4-4.4 3.1-4.4.7 0 1.4.4 1.8 1l.4-2.6h1.9l-1.5 8.9h-1.7z"/><path id="Caminho_188" class="st0" d="M53.4 19.1c-.9 0-1.5 1-1.5 2.4 0 .9.3 1.4 1 1.4.9 0 1.5-1 1.5-2.4 0-.9-.3-1.4-1-1.4z"/><path id="Caminho_189" class="st0" d="M27.9 18.9c-.6 0-1 .5-1.2 1.3h2.1c0-.2.2-1.3-.9-1.3z"/><path id="Caminho_190" class="st0" d="M34.8 19.9c0-.6 0-1.1-.1-1.7-.2.4-.3.9-.4 1.3-1.1-.1-1.2.8-1.9 5.2h-1.9l.1-.5c.3-2.2.8-4.5 1-6.8h1.8c0 .4 0 .7-.1 1.1.5-.7.8-1.1 1.4-1.2-.6-3.7-2.4-7.2-5.1-9.8-2.7 2.6-4.5 6.1-5.1 9.8h.5l-.3 1.7h-.4v.9c0 4.7 1.9 9.2 5.3 12.5 3.1-2.9 4.9-6.9 5.3-11.1v-.5c-.2-.2-.1-.6-.1-.9zm-6.6 3.3c.7 0 1.4-.2 2-.5l-.3 1.8c-.6.2-1.3.3-2 .3-.9.1-1.8-.2-2.4-.8-.6-.6-.9-1.5-.8-2.4 0-2.5 1.4-4.3 3.3-4.3.7 0 1.4.2 1.9.7.5.5.7 1.2.7 1.9 0 .6-.1 1.2-.2 1.8h-3.8c-.2 1 .5 1.4 1.6 1.5z"/></g><path id="Caminho_191" class="st0" d="M1102.2 1269.8h.3l.2-.1.2-.1.2-.2.2-.2.1-.3.1-.3v-.7l-.1-.1-.1-.1-.2-.1-.2-.1h-.7l-.2.1-.2.1-.1.1-.1.1-.1.2-.1.2v.8l.1.2.1.2.2.1.2.1.2.1zm42.4 10.7h1v-.6l.1-.7c.1-.4.2-1 .2-1.4.1-.4.1-.8.2-1 0-.2.1-.6.2-1 .1-.3.2-.7.2-.8 0-.1.1-.2.1-.3 0-.2.1-.3.2-.4l.2-.4.2-.3.2-.3.3-.2c.2-.1.3-.2.5-.3l.2-.1h1.1l.2.1.2.1v-.1c0-.2.1-.4.1-.6l.1-.5h-.1c-.1 0-.2-.1-.3-.1l-.2-.1h-.8l-.3.1-.3.1-.2.1-.2.1-.3.3-.3.3-.2.3c0 .1-.1.2-.2.2 0 0 0-.3.1-.6s.1-.7.1-.7v-.1h-1.6s0 .3-.1.6c0 .3-.1 1-.2 1.4-.1.5-.2 1.1-.3 1.6-.1.5-.2.9-.2 1.4-.1.3-.2.9-.2 1.3-.1.4-.2 1-.3 1.3l-.2 1.1-.1.4.9-.2zm-22.2 0h.9v-.4c0-.2.1-.7.1-1 0-.3.2-1 .2-1.4.1-.6.2-1.1.3-1.7.1-.5.2-.9.2-1 0-.1.1-.2.1-.2 0-.1.1-.3.2-.4.1-.2.2-.4.4-.6l.2-.3.3-.2.3-.2.3-.2.3-.2h1l.2.1c.1 0 .2.1.3.1v-.1c0-.1.1-.3.1-.6.1-.3.1-.5.1-.6-.1-.1-.2-.1-.3-.1-.2-.1-.4-.1-.5-.1h-.2l-.3.1c-.2 0-.3.1-.5.1-.2.1-.3.1-.5.2s-.3.2-.5.4-.3.3-.4.5l-.3.4-.1.1v-.2c0-.1.1-.4.1-.7 0-.3.1-.6.1-.6v-.1h-1.7v.1c0 .1 0 .4-.1.8s-.2 1-.2 1.4-.2 1.1-.2 1.5c-.1.5-.2.9-.2 1.4-.2.9-.3 1.8-.5 2.6-.1.4-.2.8-.2 1 0 .2-.1.3-.1.3l1.1-.2zm-22 0h.9v-.1-.2c0-.1.1-.5.1-1 .2-1 .3-2 .5-3.1.1-.4.2-.9.2-1.3.1-.4.2-.9.2-1.3.1-.3.2-.9.3-1.4l.2-.8h-2l-.1.6c0 .3-.1.9-.2 1.4-.1.4-.2 1.1-.2 1.5-.1.5-.2.9-.2 1.4-.1.4-.2.9-.2 1.3s-.2.9-.2 1.3-.2.9-.2 1.1c0 .2-.1.5-.1.5v.1h1zm-11.8 0h1.1l.1-.5c0-.3.1-.8.2-1.1l.2-1.4c.1-.4.2-1.1.2-1.5.1-.4.2-.9.2-1.2 0-.2.1-.4.1-.6h5.7v.3c0 .1-.1.6-.2 1s-.2 1-.3 1.4c-.1.4-.2.9-.2 1.3-.1.3-.2.9-.3 1.4-.1.5-.2.9-.2.9v.1h2.1v-.3c0-.1.1-.4.1-.6 0-.2.1-.6.1-.9.1-.3.1-.9.2-1.3s.2-1.1.3-1.6c.1-.4.2-1.1.2-1.4.1-.4.2-.9.2-1.3.1-.4.2-1 .3-1.4.1-.4.2-1 .2-1.3.1-.3.2-.9.2-1.4.1-.4.2-.9.2-1.1l.1-.3h-2.2v.2c0 .1-.1.4-.1.7 0 .3-.1.8-.2 1.1-.1.3-.2.9-.2 1.4-.1.4-.1.8-.2 1.3l-.1.5h-5.8c0-.1 0-.3.1-.4 0-.3.1-.5.1-.8.1-.3.1-.7.2-1 .1-.3.1-.7.2-.9 0-.2.1-.4.1-.6 0-.2.1-.5.2-.8 0-.3.1-.5.1-.6v-.1h-2.2l-.1.4c0 .2-.1.5-.1.7s-.1.7-.2 1.1c-.1.5-.2 1.1-.2 1.5l-.2 1.5c-.1.5-.2 1.1-.3 1.6-.1.4-.2.9-.2 1.3-.1.3-.2.9-.2 1.3-.1.4-.2.8-.2 1.3-.1.3-.1.6-.1.7 0 .1-.1.5-.2.8-.1.3-.1.6-.1.6v.1l1.3-.1zm63.7.2h.4l.4-.1c.2 0 .5-.1.6-.1.2-.1.3-.1.5-.2l.3-.1.2-.2.2-.2.2-.3c.1-.1.2-.3.3-.4v-.1.2c0 .1 0 .3-.1.4 0 .1-.1.4-.1.5v.3h1.7v-.6l.1-1.1c.1-.6.2-1.4.2-1.8s.1-.9.2-1.2c.1-.3.1-.8.2-1.2s.2-1 .2-1.4c.1-.4.2-1 .3-1.4.1-.4.2-1 .2-1.3s.2-.9.2-1.3c.1-.4.2-.8.2-1.2.1-.3.1-.5.1-.5h-1.9v.3c0 .1-.1.6-.2 1.1-.1.5-.2 1.1-.3 1.6-.1.3-.1.6-.2.9v.1h-.1s-.3-.1-.5-.1l-.4-.1h-2.2l-.4.1-.4.1-.4.2-.4.2-.3.2-.3.2-.3.3c-.2.2-.3.4-.5.6l-.2.3-.2.5c-.1.3-.3.6-.4.8-.1.2-.2.5-.2.8l-.1.5-.1.7-.1.7v.5l.1.5.1.2c0 .1.1.3.2.4l.1.2.2.2.2.2.2.2.2.2.3.1c.2.1.4.2.5.2.2 0 .4.1.5.1.4.3.8.3 1 .3zm.7-1.2h-.5c-.1 0-.3-.1-.4-.1l-.2-.1-.2-.1-.2-.1-.3-.5-.1-.3-.1-.3v-1.1l.1-.5.1-.5.1-.3c0-.1.1-.3.1-.4 0-.1.1-.2.1-.3l.3-.6c.1-.2.2-.3.3-.5.1-.2.2-.3.4-.4.1-.1.3-.2.4-.3l.2-.1.3-.1.3-.1h1.4l.4.1c.2.1.5.1.5.2h.1v.1c0 .1-.1.4-.1.6s-.1.8-.2 1.2c-.1.4-.2 1-.2 1.3-.1.3-.2.7-.2.9 0 .2-.1.4-.2.6 0 .2-.1.3-.2.5s-.2.3-.3.5l-.3.3c-.1.1-.3.2-.4.3l-.2.2-.7.2-.1-.3zm-15.5 1.2h.6l.4-.1.4-.1.2-.1c.2-.1.3-.2.5-.3.2-.1.3-.2.5-.4l.4-.4c.1-.1.1-.2.2-.2v.4c0 .2-.1.5-.1.7v.3h1.6v-1.2l.1-.8c.1-.4.2-1.1.2-1.5s.2-1 .2-1.4.2-1 .2-1.3l.1-.6v-1.1l-.1-.3-.1-.3-.2-.2-.2-.2-.3-.1-.3-.1-.8-.2h-1.9c-.4 0-1 .1-1.3.1l-.5.1h-.7l-.1.3c0 .1-.1.5-.2.7 0 .2-.1.3-.1.5.1 0 .3-.1.4-.1.2-.1.7-.2 1.1-.2l.7-.1h1.2l.8.1.3.1.3.1.1.2.1.2v.7l-.1.4-.1.4h-3.2l-.5.1c-.2.1-.5.1-.7.2-.1 0-.1.1-.2.1-.1.1-.3.1-.4.2l-.3.2-.3.3c-.1.1-.3.3-.4.5l-.3.6-.1.3-.1.4-.1.4v.8l.1.3.1.3.1.2c.1.1.2.3.3.4l.1.2.3.2.3.2.3.1c.2 0 .4.1.6.1h.3l.6-.1zm.5-1.2h-.3l-.2-.1c-.1 0-.3-.1-.4-.2l-.2-.1-.1-.1c-.1-.1-.1-.2-.2-.3l-.1-.2v-.8l.1-.3c.1-.2.1-.4.2-.5l.1-.3.3-.3.3-.3.3-.1.3-.1.4-.1.3-.1H1141.2l-.1.3c0 .2-.1.5-.2.8-.1.2-.2.6-.2.7s-.1.3-.1.4c0 .1-.1.2-.2.3l-.2.3-.3.3-.3.3c-.1 0-.1.1-.2.1l-.2.1-.4.1-.4.1-.4.1zm-7.7 1.2h.5l.5-.1c.3 0 .7-.1.9-.1.2 0 .5-.1.7-.2.1 0 .3-.1.4-.1.1-.1.1-.3.1-.4 0-.2.1-.5.1-.7v-.3h-.1c-.2.1-.3.1-.5.2l-.4.2-.6.1-.6.1h-1l-.3-.1-.3-.1-.2-.2-.2-.2-.1-.3-.1-.3-.1-.4-.1-.4v-.9l.1-.6.1-.6.1-.3c.1-.2.1-.4.1-.4.1-.2.1-.3.2-.5s.2-.5.3-.6l.2-.3.2-.2.2-.2.2-.1.2-.1.3-.1c.2-.1.4-.1.6-.1l.3-.1h1l.6.1.6.1.2.1c.1 0 .2.1.2.1 0-.1.1-.2.1-.4s.1-.5.1-.7v-.4c-.1 0-.3-.1-.4-.1-.2 0-.7-.1-1.2-.1h-2l-.4.1-.4.1-.3.1c-.2.1-.3.2-.5.2-.1.1-.2.1-.3.2-.2.1-.3.3-.5.4l-.3.3-.2.3c-.1.2-.3.5-.4.7l-.2.4-.2.5c-.1.3-.2.7-.3.9l-.1.5v2.5l.1.3.1.3.2.2.2.2.2.2.2.2.3.1.3.1.3.1c.2.1.4.1.6.1.2.7.4.7.7.7zm-13.9 0h1c.3 0 .7-.1 1-.1.3 0 .7-.1 1-.2l.5-.1v-.2c0-.1.1-.4.1-.7l.1-.5-.2.1c-.1 0-.4.1-.6.2l-.5.2-.5.1-.5.1h-1.5l-.3-.1c-.2-.1-.3-.1-.5-.2l-.2-.1-.3-.3-.1-.2-.1-.2-.1-.3-.1-.3v-1.1l.1-.5.1-.5 1.3-.1h4.8l.1-.3c0-.2.1-.5.1-.8l.1-.5v-.8l-.1-.3-.1-.3-.1-.2c-.1-.1-.2-.2-.2-.4l-.3-.3c-.1-.1-.3-.2-.4-.2l-.2-.1-.4-.1-.4-.1H1117.2l-.5.1-.5.1-.3.1-.6.3c-.2.1-.3.2-.5.3l-.4.4c-.1.1-.3.3-.4.5l-.3.6c-.1.2-.2.4-.2.5 0 .1-.1.4-.2.5-.1.2-.2.5-.2.8-.1.3-.1.6-.2.9l-.1.4v1.3l.1.3c0 .2.1.4.2.5.1.2.1.3.2.4.1.1.2.3.3.4.1.1.3.2.4.4.1.1.3.2.5.3l.3.1.4.1c.2 0 .5.1.7.1h.5zm.8-6.1h-2.2s.1-.2.1-.3c.1-.2.2-.4.2-.6l.1-.3.3-.3.3-.3.3-.1c.1-.1.3-.1.5-.2.2 0 .4-.1.6-.1h1l.2.1.2.1.1.1c.1.1.1.2.2.3l.1.1v1.4l-2 .1zm-13 10c0-.1.1-.2.1-.3 0-.1 0-.3.1-.6 0-.2.1-.8.2-1.3.1-.4.2-1.1.2-1.5s.1-.7.2-1.1c0-.1 0-.3.1-.4.1.1.1.1.1.2l.1.2.2.2.2.2.3.1.3.1h1.8l.5-.1.5-.1.3-.1.6-.3.3-.2.3-.3c.2-.2.3-.4.5-.6.1-.1.1-.2.2-.3 0-.1.1-.1.1-.2l.3-.6c.1-.2.3-.7.4-1l.2-.5.1-.5c0-.2.1-.7.1-.9l.1-.5v-.8l-.1-.4-.1-.4-.1-.3-.1-.3-.3-.3-.3-.3-.7-.3-.4-.1-.4-.1h-1.6l-.3.1-.3.1-.3.1c-.2.1-.4.2-.5.3-.1.1-.2.1-.3.2-.1.1-.1.1-.2.1l-.1.1.1-.4c0-.2.1-.4.1-.4v-.1h-1.6l-.1.9c-.1.5-.2 1.2-.3 1.7-.2 1-.3 1.9-.5 2.9-.1.4-.2 1.1-.3 1.5-.1.4-.2 1-.2 1.3s-.2.9-.2 1.3c-.1.5-.2 1-.3 1.4-.1.5-.2.9-.3 1.4-.1.4-.1.7-.2.8v.1l1.5.3zm2.7-5h-.4l-.2-.1-.2-.1-.2-.2-.2-.2-.1-.2c-.1-.1-.1-.3-.2-.5l-.1-.2v-.8l.1-.6c.1-.5.2-.9.2-1.4.1-.4.2-1 .3-1.4l.1-.6.3-.2c.2-.1.3-.2.5-.3l.2-.1.3-.1.3-.1h.8l.3.1.3.1.2.1.2.1.2.2.2.2.1.2c.1.2.1.3.2.5l.1.3v1.6l-.1.5c-.1.3-.2.7-.3.9l-.1.4-.2.3-.3.6c-.1.1-.2.2-.3.4l-.3.3-.2.1-.7.3-.8-.1z"/><g id="Grupo_456" transform="translate(979.729 1257.43)"><path id="Caminho_192" class="st0" d="M12.5 9.7c1-.3 2-.5 3-.5 4.4 0 8.3 3.1 9.2 7.5l6.4-1.3C29.5 8 23 2.7 15.4 2.7c-1.7 0-3.4.3-5 .8l2.1 6.2z"/><path id="Caminho_193" class="st0" d="M4.9 30.5l4.3-4.9c-2-1.8-3.2-4.3-3.1-7 0-2.7 1.1-5.2 3.1-7L4.9 6.7C1.5 9.7-.5 14-.5 18.6c.1 4.6 2 8.9 5.4 11.9z"/><path id="Caminho_194" class="st0" d="M24.6 20.5c-.9 4.3-4.7 7.5-9.2 7.5-1 0-2-.2-3-.5l-2.1 6.2c1.6.5 3.3.8 5 .8 7.5 0 14-5.3 15.6-12.7l-6.3-1.3z"/><path id="Caminho_195" class="st0" d="M52.3 24.9c-1.1 1.1-2.5 1.7-4.1 1.6-1 0-2.1-.3-2.9-.9L43.2 29c1.5.9 3.2 1.5 5 1.5 2.6 0 5.1-1 6.9-2.8l-2.8-2.8zm-3.8-13.8c-5.3-.1-9.7 4.2-9.8 9.5 0 1.9.5 3.8 1.6 5.4l17.5-7.5c-1.1-4.3-4.9-7.3-9.3-7.4m-5.8 10.3v-.7c0-3.1 2.6-5.7 5.8-5.6 1.6 0 3.2.8 4.3 2l-10.1 4.3zM63.3 6.7v18.7l3.2 1.3-1.5 3.8-3.2-1.3c-.6-.3-1.2-.7-1.6-1.3-.4-.7-.6-1.5-.6-2.3V6.7h3.7zM75 15.4c.6-.2 1.2-.3 1.8-.3 2.7 0 5 1.9 5.6 4.6l3.9-.8c-.9-4.5-4.9-7.7-9.5-7.7-1 0-2.1.2-3.1.5l1.3 3.7zM70.3 28l2.6-3c-1.2-1.1-1.9-2.6-1.9-4.3 0-1.6.7-3.2 1.9-4.3l-2.6-3c-2.1 1.8-3.3 4.5-3.3 7.3.1 2.8 1.3 5.5 3.3 7.3zm12.1-6.1c-.5 2.7-2.9 4.6-5.6 4.6-.6 0-1.2-.1-1.8-.3L73.7 30c1 .3 2 .5 3.1.5 4.6 0 8.6-3.2 9.5-7.8l-3.9-.8z"/></g><g id="Grupo_457" transform="translate(1173.731 1257.245)"><path id="Caminho_196" class="st0" d="M22.5 2.7H15c-4.3-.1-8.5 1.6-11.6 4.7C.3 10.5-1.3 14.6-1.2 19c.1 8.9 7.3 16 16.2 15.9h7.5c8.8 0 16.8-7.2 16.8-15.9 0-4.4-1.8-8.6-5-11.6-3.2-3.1-7.4-4.8-11.8-4.7zM15 33.5C6.9 33.5.3 26.9.3 18.8S6.9 4.1 15 4.1s14.7 6.6 14.7 14.7S23.1 33.5 15 33.5z"/><path id="Caminho_197" class="st0" d="M5.8 18.7c0 3.9 2.4 7.3 6 8.7V10.1c-3.7 1.3-6 4.8-6 8.6z"/><path id="Caminho_198" class="st0" d="M18.4 10.1v17.4c3.6-1.4 6-4.8 6-8.7-.1-3.9-2.4-7.4-6-8.7z"/></g><g id="Grupo_458" transform="translate(879.21 1259.764)"><path id="Caminho_199" class="st0" d="M56.9 5.9l-1.5 3.5h3l-1.5-3.5zM39.6 8c.3-.2.5-.5.4-.8 0-.3-.2-.6-.5-.8-.3-.1-.7-.2-1-.2h-2.7v1.9h2.6c.5.2.9.1 1.2-.1zM5.4 5.9L3.9 9.4h3L5.4 5.9zm68.7 22.2h-4.2v-1.9h4.2c.3 0 .6 0 .9-.2.2-.1.3-.4.3-.6 0-.2-.1-.4-.3-.6-.2-.2-.5-.2-.8-.2-2-.1-4.6.1-4.6-2.7 0-1.3.8-2.6 3.1-2.6H77v-1.7h-4c-1 0-1.9.2-2.7.7v-.7h-5.9c-.9-.1-1.8.2-2.6.7v-.7H51.2v.7c-.9-.5-1.9-.7-2.9-.7h-7v.7c-.9-.6-2-.8-3.1-.7h-7.8l-1.8 1.9-1.7-1.9H15.3v12.1h11.5l1.8-1.9 1.7 1.9h7.1v-2.9h.7c1 .1 2.1-.1 3-.4v3.3h5.8v-3.2h.3c.4 0 .4 0 .4.4v2.8h17.7c1 0 2.1-.2 3-.8v.8h5.6c1.1 0 2.2-.2 3.2-.6V27c-.8.8-1.9 1.2-3 1.1zm-35.9-2.9h-2.7v2.9h-4.2l-2.7-2.9-2.8 2.9h-8.6v-8.7h8.7l2.7 2.9 2.8-2.9h6.9c1.7 0 3.7.5 3.7 2.9s-1.9 2.9-3.8 2.9zm13-.4c.3.5.4 1 .4 1.6v1.7h-2.2V27c0-.5.1-1.3-.3-1.7-.5-.3-1-.5-1.6-.4h-2.3v3.2H43v-8.7h5c.9-.1 1.8.1 2.6.4.7.4 1.2 1.1 1.1 1.9 0 1-.6 1.9-1.5 2.3.3.2.7.5 1 .8zm8.9-3.6H55v1.6h5v1.8h-5v1.7h5.1v1.8h-7.2v-8.7h7.2v1.8zm5.6 6.9h-4.2v-1.9h4.2c.3 0 .6 0 .9-.2.2-.1.3-.4.3-.6 0-.2-.1-.4-.3-.6-.2-.2-.5-.2-.8-.2-2-.1-4.6.1-4.6-2.7 0-1.3.8-2.6 3.1-2.6h4.3v1.8h-4c-.3 0-.6 0-.9.2-.2.1-.3.4-.3.6 0 .3.2.6.5.6.3.1.6.1.8.1h1.2c.9-.1 1.8.2 2.5.7.5.5.7 1.2.6 1.8.1 2.2-1.1 3-3.3 3zm-16.8-6.7c-.3-.1-.7-.2-1-.2h-2.7v2h2.6c.4 0 .7 0 1.1-.2.3-.2.5-.5.5-.8 0-.4-.2-.7-.5-.8zm24.2-.2c-.3 0-.6 0-.9.2-.2.1-.3.4-.3.6 0 .3.2.6.5.6.3.1.6.1.8.1h1.2c.9-.1 1.8.2 2.5.7l.2.2v-2.5l-4 .1zm-34.9 0h-2.8v2.2h2.8c.8 0 1.4-.4 1.4-1.1 0-.8-.6-1.1-1.4-1.1zm-18.8 0v1.6h4.8v1.8h-4.8v1.7h5.3l2.5-2.6-2.4-2.5h-5.4zm13.9 6.1v-7L30 23.8l3.3 3.5zm-13.7-14v1.5h18.1v-3.2h.3c.2 0 .3 0 .3.4v2.8h9.4v-.7c1.1.5 2.3.8 3.5.7h3.9l.8-1.9h1.9l.8 1.9h7.6V13l1.1 1.8h6.1V2.7h-6v1.4l-.8-1.4h-6.2v1.4l-.8-1.4h-8.4c-1.2-.1-2.5.2-3.6.7v-.7h-5.8v.7c-.7-.5-1.6-.8-2.4-.7h-21L17 5.8l-1.5-3.1H8.9v1.4l-.7-1.4H2.6L0 8.5v4.6l3.9-8.7H7l3.7 8.2V4.4h3.5l2.8 5.9 2.6-5.9h3.6v8.7H21V6.3l-3.1 6.8H16l-3.2-6.8v6.8H8.5l-.8-1.9H3.1l-.8 1.9H-.1v1.8h3.7l.8-1.9h1.9l.8 1.9h7.3v-1.5l.7 1.5h3.8l.7-1.6zm28.5-7.9c.9-.8 2.1-1.1 3.3-1h2.1v1.9h-2.1c-.6-.1-1.2.1-1.7.5-.5.6-.7 1.3-.6 2-.1.7.1 1.5.6 2 .4.3 1 .5 1.5.4h1l3.1-6.8h3.2l3.7 8.2V4.4h3.3l3.8 6.1V4.4h2.2v8.7h-3.1l-4.1-6.5v6.5H60l-.8-1.9h-4.5l-.8 1.9h-2.5c-1.1.1-2.2-.3-3.1-1-.8-.9-1.3-2.1-1.2-3.3-.3-1.2.2-2.5 1-3.4zm-4.4-1h2.2v8.7h-2.2V4.4zm-10 0h5c.9-.1 1.8.1 2.6.4.7.4 1.1 1.1 1.1 1.9 0 1-.6 1.9-1.5 2.3.4.1.8.4 1.1.7.3.5.4 1 .4 1.6V13h-2.2v-1.1c.1-.6 0-1.2-.3-1.7-.5-.3-1-.5-1.6-.4H36V13h-2.2l-.1-8.6zm-8.8 0h7.2v1.8H27v1.6h5v1.8h-5v1.7h5.1v1.8h-7.2V4.4z"/></g></g></svg>